# xmcd
#
# Track frame offsets:
#	150
#	15137
#	28796
#	42231
#	57145
#	72599
#	87897
#	100704
#	116062
#	129014
#	144462
#	160935
#	176729
#	192166
#	205886
#
# Disc length: 2943 seconds
#
# Revision: 0
# Processed by: cddbd v1.5.2PL0 Copyright (c) Steve Scherf et al.
# Submitted via: EZCDAudioConverter 5.0.0.1
#
DISCID=c30b7d0f
DTITLE=Nikolajs Puzikovs - Te Nu Es Esmu
DYEAR=2016
DGENRE=pop
TTITLE0=Te Nu Es Esmu
TTITLE1=Mana Zeme Zied
TTITLE2=Dievs Tevi Mīl
TTITLE3=Ceļojums
TTITLE4=Tu Esi Karsta
TTITLE5=Mana Mīļā Meitene
TTITLE6=Viņas Varā
TTITLE7=Mīlestības Nevar Būt Par Daudz
TTITLE8=Meitene No 6b
TTITLE9=Viens Un Tas Pats
TTITLE10=Viens Noburts Vārds
TTITLE11=Princesīte
TTITLE12=Tāpat Vien
TTITLE13=Wherever You Go
TTITLE14=The Girl Behind The Show
EXTD=
EXTT0=
EXTT1=
EXTT2=
EXTT3=
EXTT4=
EXTT5=
EXTT6=
EXTT7=
EXTT8=
EXTT9=
EXTT10=
EXTT11=
EXTT12=
EXTT13=
EXTT14=
PLAYORDER=
